[Header]
FileType HTR
DataType HTRS
FileVersion 1
NumSegments 22
NumFrames 8
DataFrameRate 24
EulerRotationOrder ZYX
CalibrationUnits mm
RotationUnits Degrees
GlobalAxisofGravity Y
BoneLengthAxis Y
ScaleFactor 1.0
[SegmentNames&Hierarchy]
reference	GLOBAL
Hips	reference
Spine	Hips
Spine1	Spine
Neck	Spine1
Head	Neck
LeftShoulder	Spine1
LeftArm	LeftShoulder
LeftForeArm	LeftArm
LeftHand	LeftForeArm
RightShoulder	Spine1
RightArm	RightShoulder
RightForeArm	RightArm
RightHand	RightForeArm
LeftUpLeg	Hips
LeftLeg	LeftUpLeg
LeftFoot	LeftLeg
LeftToeBase	LeftFoot
RightUpLeg	Hips
RightLeg	RightUpLeg
RightFoot	RightLeg
RightToeBase	RightFoot
[BasePosition]
reference	0	0	0	0	0	0	1
Hips	0	0	0	0	0	0	1
Spine	0	0	0	-0	-90	0	1
Spine1	0	0	0	0	0	0	1
Neck	0	0	0	82.64767223	-82.64767223	-90	1
Head	0	0	0	-0	-90	0	1
LeftShoulder	0	0	0	0	0	0	1
LeftArm	0	0	0	0	0	0	1
LeftForeArm	0	0	0	0	0	0	1
LeftHand	0	0	0	0	0	0	1
RightShoulder	0	0	0	0	-0	180	1
RightArm	0	0	0	0	-0	180	1
RightForeArm	0	0	0	0	-0	180	1
RightHand	0	0	0	0	-0	180	1
LeftUpLeg	0	0	0	-0	90	0	1
LeftLeg	0	0	0	-0	90	0	1
LeftFoot	0	0	0	-23.42853957	23.42853957	-90	1
LeftToeBase	0	0	0	0	-0	-90	1
RightUpLeg	0	0	0	-0	90	0	1
RightLeg	0	0	0	-0	90	0	1
RightFoot	0	0	0	-23.42853957	23.42853957	-90	1
RightToeBase	0	0	0	0	-0	-90	1
[reference]
1	0	0	0	0	-0	0	1.0
2	0	0	0	0	-0	0	1.0
3	0	0	0	0	-0	0	1.0
4	0	0	0	0	-0	0	1.0
5	0	0	0	0	-0	0	1.0
6	0	0	0	0	-0	0	1.0
7	0	0	0	0	-0	0	1.0
8	0	0	0	0	-0	0	1.0
[Hips]
1	4.947490215	0.02346999943	8.00755024	5.408401012	1.12207067	-87.04784393	1.0
2	4.947490215	0.02346999943	8.00755024	5.053991318	0.8656384945	-87.73570251	1.0
3	4.947490215	0.02346999943	8.00755024	4.493908882	0.5524872541	-89.85206604	1.0
4	4.947490215	0.02346999943	8.00755024	4.312680721	0.2976172566	-92.00562286	1.0
5	4.947490215	0.02346999943	8.00755024	3.344499111	0.5774049759	-93.53881836	1.0
6	4.947490215	0.02346999943	8.00755024	2.926963329	0.9001176953	-96.25331879	1.0
7	4.947490215	0.02346999943	8.00755024	2.621364117	1.165201426	-98.14279175	1.0
8	4.947490215	0.02346999943	8.00755024	2.247180939	1.142377019	-102.116333	1.0
[Spine]
1	0	0	0.7457100153	71.15335083	86.07805634	80.71105194	1.0
2	0	0	0.7457100153	66.04676056	86.37763977	75.67807007	1.0
3	0	0	0.7457100153	66.96046448	86.18747711	76.28723145	1.0
4	0	0	0.7457100153	68.93795013	85.76980591	78.41896057	1.0
5	0	0	0.7457100153	64.91593933	85.75119019	73.30725861	1.0
6	0	0	0.7457100153	56.63566971	85.36034393	65.05347443	1.0
7	0	0	0.7457100153	53.278862	85.20384216	61.61783981	1.0
8	0	0	0.7457100153	51.03072739	85.54380035	60.12400818	1.0
[Spine1]
1	0	0	2.140589952	8.468515396	0.2947113812	1.295244217	1.0
2	0	0	2.140589952	8.445393562	0.6944730282	1.196959257	1.0
3	0	0	2.140589952	8.193133354	0.8964701891	1.275061607	1.0
4	0	0	2.140589952	8.165040016	0.8983101845	1.423139095	1.0
5	0	0	2.140589952	7.93500948	0.7478838563	1.379255176	1.0
6	0	0	2.140589952	8.56001091	0.762152791	1.412584543	1.0
7	0	0	2.140589952	9.310974121	0.538122952	1.395935535	1.0
8	0	0	2.140589952	11.95767403	0.1162498593	1.240824103	1.0
[Neck]
1	0	0	2.32246995	69.95507813	88.6897583	86.91553497	1.0
2	0	0	2.32246995	81.68133545	88.25296021	98.04401398	1.0
3	0	0	2.32246995	90.44245148	87.54098511	105.7752838	1.0
4	0	0	2.32246995	97.19494629	86.85275269	111.5360718	1.0
5	0	0	2.32246995	100.8042908	86.11904907	114.6028519	1.0
6	0	0	2.32246995	102.0294495	85.02059937	115.4606628	1.0
7	0	0	2.32246995	100.9172668	84.35192871	114.6197128	1.0
8	0	0	2.32246995	93.67526245	82.87695313	108.6759033	1.0
[Head]
1	0	-0.1818799973	1.409579992	77.72863007	96.34726715	77.4262085	1.0
2	0	-0.1818799973	1.409579992	76.65306091	95.88780212	76.12860107	1.0
3	0	-0.1818799973	1.409579992	76.62397766	95.17832947	76.71340179	1.0
4	0	-0.1818799973	1.409579992	76.63964844	94.54830933	77.92644501	1.0
5	0	-0.1818799973	1.409579992	78.91931915	93.87965393	80.98047638	1.0
6	0	-0.1818799973	1.409579992	76.97608948	92.84920502	79.86723328	1.0
7	0	-0.1818799973	1.409579992	70.20892334	92.17012024	73.80552673	1.0
8	0	-0.1818799973	1.409579992	9.670570374	91.42871094	13.40743065	1.0
[LeftShoulder]
1	0.3668199778	0.02662999928	1.946700096	-9.125026703	-3.31618619	-12.64030838	1.0
2	0.3668199778	0.02662999928	1.946700096	-9.501396179	-3.104018688	-12.48173237	1.0
3	0.3668199778	0.02662999928	1.946700096	-10.01975632	-2.202065229	-12.28893757	1.0
4	0.3668199778	0.02662999928	1.946700096	-10.76022816	-1.159942627	-12.21700859	1.0
5	0.3668199778	0.02662999928	1.946700096	-10.68692207	-0.02860017866	-12.08635235	1.0
6	0.3668199778	0.02662999928	1.946700096	-12.37816429	0.9841544628	-11.96920681	1.0
7	0.3668199778	0.02662999928	1.946700096	-13.42261124	2.106825352	-11.92013931	1.0
8	0.3668199778	0.02662999928	1.946700096	-16.23328018	4.661419868	-12.44638634	1.0
[LeftArm]
1	1.140689969	0	0	56.87320709	53.21834183	52.8823967	1.0
2	1.140689969	0	0	57.48981476	53.42039871	52.33429718	1.0
3	1.140689969	0	0	58.30539703	54.12637329	50.86708069	1.0
4	1.140689969	0	0	59.25382233	54.66430664	49.99041748	1.0
5	1.140689969	0	0	59.89491272	55.7728653	48.39409637	1.0
6	1.140689969	0	0	63.24964905	57.22226334	48.19108963	1.0
7	1.140689969	0	0	65.92768097	58.40070343	47.41570282	1.0
8	1.140689969	0	0	73.02493286	61.432724	44.59296417	1.0
[LeftForeArm]
1	2.749800205	0	0	-6.59876442	6.482032299	-2.818460941	1.0
2	2.749800205	0	0	-6.905576706	6.347641945	-1.902112365	1.0
3	2.749800205	0	0	-7.446237564	5.876555443	-1.205337286	1.0
4	2.749800205	0	0	-8.025125504	5.471065998	-1.273395181	1.0
5	2.749800205	0	0	-8.793729782	4.924928665	-2.003008842	1.0
6	2.749800205	0	0	-9.618038177	4.23319912	-3.02602911	1.0
7	2.749800205	0	0	-11.00306702	3.316367865	-4.047075272	1.0
8	2.749800205	0	0	-14.15283585	0.7653582096	-6.126983643	1.0
[LeftHand]
1	2.295179844	0	0	-6.445472717	-1.178699374	0.6128259897	1.0
2	2.295179844	0	0	-6.811881542	-1.518208504	0.9060793519	1.0
3	2.295179844	0	0	-7.397802353	-1.530323267	1.032671928	1.0
4	2.295179844	0	0	-8.004564285	-2.224732161	2.061084509	1.0
5	2.295179844	0	0	-8.715867996	-0.9851281047	0.9592522383	1.0
6	2.295179844	0	0	-9.507885933	-0.8094430566	0.2934264243	1.0
7	2.295179844	0	0	-10.89326	-1.561952829	0.5081242919	1.0
8	2.295179844	0	0	-14.11425877	-1.436752677	-0.3814610839	1.0
[RightShoulder]
1	-0.3601199985	0.02662999928	1.946700096	-8.78262043	7.550673008	-177.0426483	1.0
2	-0.3601199985	0.02662999928	1.946700096	-8.568071365	7.133993626	-177.0839081	1.0
3	-0.3601199985	0.02662999928	1.946700096	-8.137097359	6.365186691	-176.9236145	1.0
4	-0.3601199985	0.02662999928	1.946700096	-7.852232933	5.415484905	-176.5205383	1.0
5	-0.3601199985	0.02662999928	1.946700096	-7.262267113	5.046401978	-176.0962677	1.0
6	-0.3601199985	0.02662999928	1.946700096	-7.225780487	4.071926117	-175.3562775	1.0
7	-0.3601199985	0.02662999928	1.946700096	-7.348735809	3.345482588	-174.7666321	1.0
8	-0.3601199985	0.02662999928	1.946700096	-7.773151398	3.25716424	-174.1996002	1.0
[RightArm]
1	-1.140689969	0	0	4.57988739	-69.44799805	-111.9011993	1.0
2	-1.140689969	0	0	3.8371768	-70.5274353	-111.9819946	1.0
3	-1.140689969	0	0	3.504729271	-72.62387085	-113.1110229	1.0
4	-1.140689969	0	0	5.966116905	-74.42033386	-116.7437668	1.0
5	-1.140689969	0	0	6.711812496	-75.49820709	-118.8476868	1.0
6	-1.140689969	0	0	11.82605553	-77.18674469	-125.1294174	1.0
7	-1.140689969	0	0	14.56647682	-77.32025909	-130.4525757	1.0
8	-1.140689969	0	0	16.39266205	-78.88499451	-135.2944336	1.0
[RightForeArm]
1	-2.749800205	0	0	8.833387375	4.533286572	-153.1869507	1.0
2	-2.749800205	0	0	7.879786491	6.41637516	-152.5898438	1.0
3	-2.749800205	0	0	6.769258976	9.242398262	-152.1209717	1.0
4	-2.749800205	0	0	5.645586967	11.2991333	-151.8270416	1.0
5	-2.749800205	0	0	4.683644295	12.32514477	-151.5573425	1.0
6	-2.749800205	0	0	3.062666178	13.83043098	-152.4146729	1.0
7	-2.749800205	0	0	2.659998894	12.60612869	-152.6735535	1.0
8	-2.749800205	0	0	1.059467912	9.556763649	-157.8720093	1.0
[RightHand]
1	-2.295179844	0	0	8.707062721	10.02492332	-169.1411591	1.0
2	-2.295179844	0	0	7.291249752	10.13887787	-169.0050659	1.0
3	-2.295179844	0	0	5.529211998	10.62087822	-168.6382446	1.0
4	-2.295179844	0	0	3.926304102	11.14329147	-168.5057678	1.0
5	-2.295179844	0	0	2.746244192	11.79039288	-168.437027	1.0
6	-2.295179844	0	0	0.9333497286	12.07048225	-167.9178772	1.0
7	-2.295179844	0	0	0.9560067654	12.41038132	-167.5552673	1.0
8	-2.295179844	0	0	0.5605946779	13.77897835	-168.4508057	1.0
[LeftUpLeg]
1	0.9094099998	0	0	-77.01847839	-88.53939056	84.33499146	1.0
2	0.9094099998	0	0	-84.57767487	-87.18829346	90.89292145	1.0
3	0.9094099998	0	0	-92.46447754	-83.72341156	95.48265076	1.0
4	0.9094099998	0	0	-107.3472366	-84.13844299	106.489563	1.0
5	0.9094099998	0	0	-134.0781403	-84.78793335	129.8651581	1.0
6	0.9094099998	0	0	-153.3963776	-84.08312988	143.6464081	1.0
7	0.9094099998	0	0	-158.9096375	-83.4239502	145.8399963	1.0
8	0.9094099998	0	0	-184.1452026	-83.43666077	165.6280518	1.0
[LeftLeg]
1	0	0	-4.498080254	70.24763489	-83.40782166	-57.14550018	1.0
2	0	0	-4.498080254	65.2919693	-84.05715179	-46.61036682	1.0
3	0	0	-4.498080254	68.41147614	-84.81721497	-38.62470245	1.0
4	0	0	-4.498080254	48.38238525	-83.58177948	-8.336197853	1.0
5	0	0	-4.498080254	35.90673065	-81.51018524	13.85713387	1.0
6	0	0	-4.498080254	49.58328247	-76.70324707	11.85681248	1.0
7	0	0	-4.498080254	61.49837494	-70.11903381	5.631269455	1.0
8	0	0	-4.498080254	61.30537415	-65.92532349	10.43249512	1.0
[LeftFoot]
1	0	0	-3.729400158	-49.44621277	-10.56191444	101.9985962	1.0
2	0	0	-3.729400158	-48.20344543	-9.094016075	100.0487518	1.0
3	0	0	-3.729400158	-43.10054779	-6.655458927	94.53057861	1.0
4	0	0	-3.729400158	-36.95404053	-3.146240711	93.52441406	1.0
5	0	0	-3.729400158	-32.52843094	-5.09050703	95.38687134	1.0
6	0	0	-3.729400158	-29.78225327	-7.656682014	99.99300385	1.0
7	0	0	-3.729400158	-29.18984985	-4.325986862	106.6850433	1.0
8	0	0	-3.729400158	-35.65002441	-3.168467522	113.810173	1.0
[LeftToeBase]
1	0	-1.364109993	-0.5911099911	0	0	-9.999999975e-007	1.0
2	0	-1.364109993	-0.5911099911	0	0	-9.999999975e-007	1.0
3	0	-1.364109993	-0.5911099911	0	0	-9.999999975e-007	1.0
4	0	-1.364109993	-0.5911099911	0	0	-9.999999975e-007	1.0
5	0	-1.364109993	-0.5911099911	0	0	-9.999999975e-007	1.0
6	0	-1.364109993	-0.5911099911	0	0	-9.999999975e-007	1.0
7	0	-1.364109993	-0.5911099911	0	0	-9.999999975e-007	1.0
8	0	-1.364109993	-0.5911099911	0	0	-9.999999975e-007	1.0
[RightUpLeg]
1	-0.9094099998	0	0	-73.78005981	-103.9231339	53.75315094	1.0
2	-0.9094099998	0	0	-71.86984253	-103.0449905	52.21162415	1.0
3	-0.9094099998	0	0	-63.11144257	-100.4567642	44.12129211	1.0
4	-0.9094099998	0	0	-54.34231949	-98.29819489	35.4092598	1.0
5	-0.9094099998	0	0	-48.60736084	-98.27750397	30.32582092	1.0
6	-0.9094099998	0	0	-48.0995636	-99.07589722	29.70942307	1.0
7	-0.9094099998	0	0	-47.56234741	-99.91893005	29.28367233	1.0
8	-0.9094099998	0	0	-35.0368042	-99.01643372	18.12832642	1.0
[RightLeg]
1	0	0	-4.498080254	58.43439102	-84.12447357	-42.78967285	1.0
2	0	0	-4.498080254	58.00307465	-83.05290985	-40.35125351	1.0
3	0	0	-4.498080254	65.96420288	-80.41294861	-45.69403458	1.0
4	0	0	-4.498080254	68.24061584	-81.0092926	-45.15922165	1.0
5	0	0	-4.498080254	63.68831253	-82.54485321	-37.87879181	1.0
6	0	0	-4.498080254	34.45352173	-85.88504028	-4.52912426	1.0
7	0	0	-4.498080254	25.87400436	-85.3409729	6.180969238	1.0
8	0	0	-4.498080254	-13.17077541	-85.46797943	46.91151047	1.0
[RightFoot]
1	0	0	-3.729400158	-34.00309753	-14.22140884	88.37046051	1.0
2	0	0	-3.729400158	-35.13462448	-16.38657379	89.8939209	1.0
3	0	0	-3.729400158	-37.72137451	-16.63436508	93.01387024	1.0
4	0	0	-3.729400158	-39.30659866	-17.19815063	92.90722656	1.0
5	0	0	-3.729400158	-40.72868347	-17.49305725	92.09708405	1.0
6	0	0	-3.729400158	-42.73573303	-17.63720322	89.61325073	1.0
7	0	0	-3.729400158	-45.35587311	-17.01686478	90.54257965	1.0
8	0	0	-3.729400158	-46.3084259	-18.24225998	88.45236206	1.0
[RightToeBase]
1	0	0	-0.5911099911	9.999999975e-007	9.999999975e-007	-1.999999995e-006	1.0
2	0	0	-0.5911099911	9.999999975e-007	9.999999975e-007	-1.999999995e-006	1.0
3	0	0	-0.5911099911	9.999999975e-007	9.999999975e-007	-1.999999995e-006	1.0
4	0	0	-0.5911099911	9.999999975e-007	9.999999975e-007	-1.999999995e-006	1.0
5	0	0	-0.5911099911	9.999999975e-007	9.999999975e-007	-1.999999995e-006	1.0
6	0	0	-0.5911099911	9.999999975e-007	9.999999975e-007	-1.999999995e-006	1.0
7	0	0	-0.5911099911	9.999999975e-007	9.999999975e-007	-1.999999995e-006	1.0
8	0	0	-0.5911099911	9.999999975e-007	9.999999975e-007	-1.999999995e-006	1.0
[EndOfFile]
